#!OML:ASF H:\Martial Arts Walks\Project 1\Capture day 1\Session 1\male.ASF
:FULLY-SPECIFIED
:DEGREES
1546
root 0.110936 14.2477 3.50431 14.022 -32.2724 -15.8588
lowerback 10.6525 1.81657 3.35069
upperback -1.75994 3.08967 2.94669
thorax -7.84782 1.42031 0.703782
lowerneck -5.2354 7.72901 1.12042
upperneck 3.84752 10.14 1.96482
head 2.04567 5.12224 0.766053
rclavicle 9.67087e-014 6.36111e-015
rhumerus -79.1778 19.5787 -97.8937
rradius 112.65
rwrist -66.2151
rhand -6.89672 -22.6506
rfingers 7.12502
rthumb 18.9701 -51.7455
lclavicle 9.67087e-014 6.36111e-015
lhumerus 68.5078 23.2518 98.3345
lradius 12.7828
lwrist -76.0964
lhand -28.1679 40.2691
lfingers 7.12502
lthumb -1.54806 430.243
rfemur 6.08047 -10.879 16.3246
rtibia 39.948
rfoot -23.9527 -31.7982
rtoes -26.7987
lfemur -62.3693 27.0641 -1.98679
ltibia 64.2222
lfoot 0.746758 -2.75372
ltoes 0.089047
1547
root 0.120979 14.2335 3.527 14.0376 -32.3585 -15.8557
lowerback 10.7877 1.79764 3.41855
upperback -1.77822 3.08637 3.00929
thorax -7.9458 1.41509 0.728306
lowerneck -5.15746 7.73603 1.20142
upperneck 3.64681 10.1539 1.831
head 1.97724 5.12548 0.702302
rclavicle 1.98785e-016 -2.3059e-014
rhumerus -79.1329 19.7131 -97.9185
rradius 112.324
rwrist -66.0049
rhand -6.77373 -22.8344
rfingers 7.12502
rthumb 19.0884 -51.9177
lclavicle 1.98785e-016 -2.3059e-014
lhumerus 68.9033 23.6475 98.7819
lradius 12.7848
lwrist -77.5469
lhand -27.8637 40.3999
lfingers 7.12502
lthumb -1.25424 430.376
rfemur 6.14095 -10.5746 16.2625
rtibia 39.9057
rfoot -23.9408 -31.8393
rtoes -26.9941
lfemur -62.4008 26.7972 -1.94841
ltibia 64.4354
lfoot 0.565556 -2.27525
ltoes -1.02061
1548
root 0.130131 14.2217 3.55022 14.0908 -32.4538 -15.799
lowerback 10.8432 1.78732 3.4256
upperback -1.80714 3.08244 3.06817
thorax -8.01231 1.41294 0.785549
lowerneck -5.05638 7.74495 1.26385
upperneck 3.484 10.1713 1.69963
head 1.91624 5.13052 0.642696
rclavicle 5.23798e-014 2.94201e-014
rhumerus -79.1187 19.8463 -97.9889
rradius 111.949
rwrist -65.7701
rhand -6.53157 -23.0649
rfingers 7.12502
rthumb 19.3213 -52.125
lclavicle 5.23798e-014 2.94201e-014
lhumerus 69.0913 23.8969 98.7957
lradius 12.7824
lwrist -77.9766
lhand -27.6916 40.3196
lfingers 7.12502
lthumb -1.0881 430.297
rfemur 6.10389 -10.3097 16.1564
rtibia 39.9122
rfoot -23.9594 -31.8589
rtoes -27.1177
lfemur -62.5135 26.5879 -2.00039
ltibia 64.6431
lfoot 0.428211 -1.90299
ltoes -1.94058
1549
root 0.138132 14.2126 3.57459 14.1817 -32.5581 -15.7045
lowerback 10.815 1.78754 3.38106
upperback -1.83897 3.08104 3.12663
thorax -8.03634 1.4153 0.873387
lowerneck -4.94188 7.7573 1.31249
upperneck 3.34773 10.194 1.56875
head 1.86099 5.13823 0.585988
rclavicle 1.00983e-013 1.66979e-014
rhumerus -79.1062 19.9682 -98.0647
rradius 111.528
rwrist -65.5849
rhand -6.13857 -23.2791
rfingers 7.12502
rthumb 19.6991 -52.301
lclavicle 1.00983e-013 1.66979e-014
lhumerus 69.1569 24.0549 98.5765
lradius 12.7647
lwrist -77.7045
lhand -27.6223 40.0539
lfingers 7.12502
lthumb -1.02113 430.031
rfemur 5.9814 -10.1067 16.009
rtibia 39.9592
rfoot -23.9999 -31.8446
rtoes -27.1692
lfemur -62.6899 26.4363 -2.12238
ltibia 64.8441
lfoot 0.32018 -1.62242
ltoes -2.70198
1550
root 0.14517 14.2065 3.60044 14.3105 -32.6776 -15.6008
lowerback 10.7151 1.80352 3.31231
upperback -1.86971 3.09354 3.1882
thorax -8.01917 1.42643 0.977876
lowerneck -4.81751 7.76816 1.35208
upperneck 3.23356 10.2151 1.4375
head 1.81098 5.14524 0.530948
rclavicle 8.54774e-015 -2.78299e-014
rhumerus -79.0806 20.0552 -98.1029
rradius 111.091
rwrist -65.5584
rhand -5.6528 -23.4589
rfingers 7.12502
rthumb 20.1661 -52.4322
lclavicle 8.54774e-015 -2.78299e-014
lhumerus 69.1943 24.1789 98.3557
lradius 12.7265
lwrist -77.1744
lhand -27.6115 39.7011
lfingers 7.12502
lthumb -1.01068 429.678
rfemur 5.79148 -9.97181 15.8355
rtibia 40.0349
rfoot -24.0307 -31.8011
rtoes -27.1742
lfemur -62.9015 26.3431 -2.2769
ltibia 65.04
lfoot 0.22549 -1.40593
ltoes -3.30793
1551
root 0.151607 14.2029 3.62759 14.4608 -32.7999 -15.5092
lowerback 10.5723 1.8287 3.24656
upperback -1.89155 3.11624 3.25423
thorax -7.96787 1.44305 1.08506
lowerneck -4.68474 7.77809 1.3831
upperneck 3.13116 10.2352 1.31404
head 1.76262 5.15195 0.479701
rclavicle -1.67973e-014 -2.62396e-014
rhumerus -79.0237 20.0941 -98.0763
rradius 110.679
rwrist -65.7534
rhand -5.14703 -23.5963
rfingers 7.12502
rthumb 20.6521 -52.5176
lclavicle -1.67973e-014 -2.62396e-014
lhumerus 69.3097 24.3344 98.3584
lradius 12.6666
lwrist -76.8191
lhand -27.6183 39.335
lfingers 7.12502
lthumb -1.01727 429.312
rfemur 5.57296 -9.90508 15.6525
rtibia 40.1241
rfoot -24.0738 -31.7111
rtoes -27.107
lfemur -63.1195 26.2901 -2.43303
ltibia 65.233
lfoot 0.129911 -1.23073
ltoes -3.76342
1552
root 0.157806 14.2013 3.65545 14.6159 -32.9416 -15.4384
lowerback 10.4167 1.86609 3.19077
upperback -1.8993 3.15535 3.32322
thorax -7.8938 1.46758 1.18755
lowerneck -4.57319 7.78607 1.4247
upperneck 3.06635 10.2512 1.18347
head 1.73139 5.15696 0.426864
rclavicle -1.21557e-013 -3.81667e-014
rhumerus -78.9299 20.0794 -97.9697
rradius 110.334
rwrist -66.1556
rhand -4.73116 -23.7076
rfingers 7.12502
rthumb 21.0517 -52.585
lclavicle -1.21557e-013 -3.81667e-014
lhumerus 69.484 24.5171 98.536
lradius 12.6048
lwrist -76.7475
lhand -27.61 39.0571
lfingers 7.12502
lthumb -1.00924 429.034
rfemur 5.34946 -9.88103 15.4626
rtibia 40.215
rfoot -24.1088 -31.583
rtoes -26.9903
lfemur -63.3109 26.2884 -2.5798
ltibia 65.4218
lfoot 0.0219766 -1.07849
ltoes -4.11884
1553
root 0.164242 14.201 3.68338 14.7482 -33.0895 -15.3864
lowerback 10.2869 1.9059 3.15506
upperback -1.89193 3.20094 3.39228
thorax -7.81752 1.49428 1.27721
lowerneck -4.47403 7.79702 1.46243
upperneck 3.03441 10.2704 1.06617
head 1.7122 5.16401 0.380437
rclavicle -6.77856e-014 -4.53229e-014
rhumerus -78.8084 20.0163 -97.7939
rradius 110.082
rwrist -66.6496
rhand -4.51781 -23.8422
rfingers 7.12502
rthumb 21.2566 -52.6966
lclavicle -6.77856e-014 -4.53229e-014
lhumerus 69.6717 24.7125 98.7855
lradius 12.5571
lwrist -76.9069
lhand -27.6072 38.8791
lfingers 7.12502
lthumb -1.00653 428.856
rfemur 5.15561 -9.88745 15.2708
rtibia 40.2976
rfoot -24.1159 -31.4395
rtoes -26.8502
lfemur -63.4557 26.3178 -2.71191
ltibia 65.6044
lfoot -0.0940953 -0.938344
ltoes -4.39185
